HIERARCHY
ROOT Hips
{
	OFFSET -3.958830 18.904000 13.208200
	CHANNELS 6 Xposition Yposition Zposition Zrotation Yrotation Xrotation 
	JOINT LHipJoint
	{
		OFFSET 0.000000 0.000000 0.000000
		CHANNELS 3 Zrotation Yrotation Xrotation
		JOINT LeftUpLeg
		{
			OFFSET 1.800000 -1.400000 0.085000
			CHANNELS 3 Zrotation Yrotation Xrotation
			JOINT LeftLeg
			{
				OFFSET 2.215000 -6.000000 0.000000
				CHANNELS 3 Zrotation Yrotation Xrotation
				JOINT LeftFoot
				{
					OFFSET 2.500000 -6.900000 0.000000
					CHANNELS 3 Zrotation Yrotation Xrotation
					JOINT LeftToeBase
					{
						OFFSET 0.200000 -0.500000 1.950000
						CHANNELS 3 Zrotation Yrotation Xrotation
						End Site
						{
							OFFSET 0.000000 0.000000 0.000000
						}
					}
				}
			}
		}
	}
	JOINT RHipJoint
	{
		OFFSET 0.000000 0.000000 0.000000
		CHANNELS 3 Zrotation Yrotation Xrotation
		JOINT RightUpLeg
		{
			OFFSET -1.800000 -1.400000 0.085000
			CHANNELS 3 Zrotation Yrotation Xrotation
			JOINT RightLeg
			{
				OFFSET -2.215000 -6.000000 0.000000
				CHANNELS 3 Zrotation Yrotation Xrotation
				JOINT RightFoot
				{
					OFFSET -2.500000 -6.900000 0.000000
					CHANNELS 3 Zrotation Yrotation Xrotation
					JOINT RightToeBase
					{
						OFFSET -0.200000 -0.500000 1.950000
						CHANNELS 3 Zrotation Yrotation Xrotation
						End Site
						{
							OFFSET 0.000000 0.000000 0.000000
						}
					}
				}
			}
		}
	}
	JOINT LowerBack
	{
		OFFSET 0.000000 0.000000 0.000000
		CHANNELS 3 Zrotation Yrotation Xrotation
		JOINT Spine
		{
			OFFSET -0.087000 1.940000 -0.288900
			CHANNELS 3 Zrotation Yrotation Xrotation
			JOINT Spine1
			{
				OFFSET 0.000000 1.950000 0.060000
				CHANNELS 3 Zrotation Yrotation Xrotation
				JOINT Neck
				{
					OFFSET 0.000000 0.000000 0.000000
					CHANNELS 3 Zrotation Yrotation Xrotation
					JOINT Neck1
					{
						OFFSET 0.000000 1.600000 0.340000
						CHANNELS 3 Zrotation Yrotation Xrotation
						JOINT Head
						{
							OFFSET 0.000000 1.667000 -0.240000
							CHANNELS 3 Zrotation Yrotation Xrotation
							End Site
							{
								OFFSET 0.000000 0.000000 0.000000
							}
						}
					}
				}
				JOINT LeftShoulder
				{
					OFFSET 0.000000 0.000000 0.000000
					CHANNELS 3 Zrotation Yrotation Xrotation
					JOINT LeftArm
					{
						OFFSET 2.700000 1.550000 -0.730000
						CHANNELS 3 Zrotation Yrotation Xrotation
						JOINT LeftForeArm
						{
							OFFSET 5.450000 0.000000 0.000000
							CHANNELS 3 Zrotation Yrotation Xrotation
							JOINT LeftHand
							{
								OFFSET 3.450000 0.000000 0.000000
								CHANNELS 3 Zrotation Yrotation Xrotation
								JOINT LeftHandIndex1
								{
									OFFSET 0.750000 0.000000 0.000000
									CHANNELS 3 Zrotation Yrotation Xrotation
									End Site
									{
										OFFSET 0.000000 0.000000 0.000000
									}
								}
							}
						}
					}
				}
				JOINT RightShoulder
				{
					OFFSET 0.000000 0.000000 0.000000
					CHANNELS 3 Zrotation Yrotation Xrotation
					JOINT RightArm
					{
						OFFSET -2.700000 1.550000 -0.730000
						CHANNELS 3 Zrotation Yrotation Xrotation
						JOINT RightForeArm
						{
							OFFSET -5.450000 0.000000 0.000000
							CHANNELS 3 Zrotation Yrotation Xrotation
							JOINT RightHand
							{
								OFFSET -3.450000 0.000000 0.000000
								CHANNELS 3 Zrotation Yrotation Xrotation
								JOINT RightHandIndex1
								{
									OFFSET -0.750000 0.000000 0.000000
									CHANNELS 3 Zrotation Yrotation Xrotation
									End Site
									{
										OFFSET 0.000000 0.000000 0.000000
									}
								}
							}
						}
					}
				}
			}
		}
	}
}
MOTION
Frames: 6
Frame Time: 0.016667
0.377240 16.143490 -2.534870 4.113664 -2.412889 3.278294 -14.926840 12.902891 3.163507 11.781305 -4.135132 -20.042227 -12.418124 10.625772 28.646101 -0.906535 7.444689 2.137912 0.749790 0.194010 0.390350 18.606192 -10.907346 2.253401 -3.520877 2.234001 -26.784027 -4.748545 -5.885649 39.343883 -0.475733 -5.676833 2.611522 0.530770 0.735340 0.326740 -4.389335 -1.477287 -6.836515 20.183769 -7.317972 8.623167 -11.226327 -5.211768 10.343533 1.708500 -4.413147 -5.787893 -7.861164 2.114368 21.834478 -3.221370 1.009690 -10.370950 -19.212971 -3.207404 -0.939688 -30.105488 -21.893103 11.657995 -173.064729 -58.289574 162.425769 -4.078916 3.408435 0.576260 0.563780 -0.420000 0.458930 15.384373 1.684425 4.712460 32.571240 -7.010422 -7.891864 111.312254 72.744374 79.715211 1.835359 0.006493 -0.548530 0.601940 0.087150 -0.418430 
0.434870 16.088280 -2.546550 5.101300 -3.995031 3.455777 -14.956403 13.022467 3.026244 10.238994 -4.255382 -19.995459 -9.949772 9.925714 30.151518 -0.954473 7.263046 2.193848 0.804220 0.258070 0.436070 18.578044 -10.758304 2.434620 -4.131347 2.635089 -28.207205 -1.302143 -7.256002 39.234256 -0.501781 -5.739241 2.555653 0.569830 0.705530 0.325090 -4.298438 -1.765680 -6.825919 18.404542 -7.515740 8.940840 -10.521852 -5.523458 10.236828 1.111121 -4.904144 -5.753873 -8.752737 3.242690 21.491620 -2.763770 1.426330 -11.433790 -18.591665 -3.003021 -1.096937 -27.730495 -20.917455 10.707229 -170.588356 -57.963744 157.852929 -4.061035 3.422798 0.593370 0.535860 -0.388620 0.463340 15.998927 2.008058 4.633364 31.978450 -6.005056 -6.835191 112.632425 70.918597 79.231601 1.735764 -0.467025 -0.537300 0.611770 0.061420 -0.421860 
0.490130 16.011500 -2.565280 5.998545 -5.923095 3.700420 -14.997875 13.096209 2.919954 8.789671 -4.377394 -20.137596 -7.719128 9.326366 31.647605 -1.013846 7.197253 2.236963 0.790820 0.249960 0.421150 18.549669 -10.535931 2.671049 -4.985548 3.243377 -30.225415 1.999322 -8.678958 39.788324 -0.523686 -5.991550 2.468681 0.592710 0.745820 0.289740 -4.192162 -2.089111 -6.873866 16.487513 -7.639602 9.553974 -9.532825 -5.749547 9.630910 0.475396 -5.544865 -5.760260 -9.833100 4.559847 20.682053 -2.235800 1.740330 -11.606220 -18.668777 -3.256550 -0.969716 -24.729307 -19.468606 9.609272 -170.390638 -57.435755 157.272615 -4.104905 3.374645 0.603320 0.546810 -0.413950 0.465680 17.422473 3.009823 4.422752 29.929784 -4.887156 -6.250531 116.437547 69.584172 83.165943 1.573988 -0.707227 -0.586510 0.675320 0.080030 -0.425990 
0.556200 15.926480 -2.590870 6.297769 -7.443524 3.645395 -15.025446 13.042808 2.854805 8.228871 -4.614180 -20.486002 -6.400964 9.163462 33.467988 -1.025377 7.322616 2.191300 0.804270 0.283800 0.411830 18.553380 -10.279141 2.930125 -6.083646 3.837779 -32.542506 5.235745 -10.518360 41.547128 -0.631490 -6.554263 2.271068 0.629600 0.758650 0.257520 -4.166058 -2.283034 -6.981312 15.620692 -8.071358 10.400130 -8.941129 -6.215236 8.971657 0.004306 -6.186019 -5.596044 -10.941908 5.798522 20.111724 -1.721920 1.930630 -12.131410 -19.306717 -3.772212 -0.861212 -21.762224 -18.171944 8.362900 -169.621085 -57.689321 156.061969 -4.118824 3.340783 0.613360 0.539970 -0.419750 0.475500 19.068075 4.101960 4.008198 27.104108 -3.354297 -5.792398 120.457441 68.927022 88.481837 1.439624 -0.846267 -0.612540 0.722380 0.081180 -0.423170 
0.622860 15.836890 -2.609990 6.030940 -8.752086 3.580171 -15.046748 12.933326 2.812447 8.238420 -4.887906 -20.994892 -5.599125 9.230772 35.317707 -0.982025 7.549549 2.105460 0.816150 0.297880 0.397610 18.570423 -10.013470 3.196233 -7.341751 4.366218 -34.889475 8.015089 -12.526890 43.894590 -0.788746 -7.288862 2.017842 0.636540 0.768210 0.263380 -4.175719 -2.418038 -7.122529 15.422188 -8.498214 11.262114 -8.446416 -6.640726 8.343307 -0.329216 -6.719667 -5.626474 -11.882553 6.760970 19.696057 -1.088980 1.907760 -12.221900 -20.141722 -4.766228 -0.616337 -19.439746 -17.103608 7.085636 -168.643967 -58.541589 154.633413 -4.125198 3.344402 0.613790 0.533660 -0.419060 0.489120 20.630108 5.521016 3.880805 24.836465 -1.855391 -5.410357 124.383263 68.245057 93.441073 1.346484 -1.014714 -0.604800 0.726500 0.082770 -0.409620 
0.677920 15.742410 -2.629390 5.627839 -9.618875 2.702664 -15.065511 12.850847 2.776764 8.461694 -5.173033 -20.983555 -4.934581 9.486247 37.613377 -0.861045 7.855650 1.982306 0.816050 0.294080 0.400860 18.578500 -9.756986 3.479529 -9.228053 4.625228 -37.040231 10.661244 -15.035602 47.125568 -1.017073 -8.241793 1.699072 0.603350 0.719800 0.256360 -4.171577 -2.596361 -7.352219 14.988435 -8.927539 13.340984 -7.928293 -6.984820 7.456426 -0.470341 -7.084329 -5.818270 -12.648767 7.187469 20.064490 -0.495200 1.827230 -12.710920 -20.967244 -5.987424 -0.483315 -17.704534 -16.497780 5.640831 -164.968885 -60.151785 149.052912 -4.067450 3.346955 0.630330 0.480370 -0.389330 0.481580 21.792557 6.988500 4.068106 23.297142 -0.632850 -5.136424 126.167067 67.292821 94.817653 1.376921 -1.135964 -0.573980 0.693630 0.069020 -0.402380 
